<svg width="40.000000" height="35.156250" viewBox="0 0 40 35.1562" fill="none" xmlns="http://www.w3.org/2000/svg" xmlns:xlink="http://www.w3.org/1999/xlink">
	<desc>
			Created with Pixso.
	</desc>
	<defs/>
	<path id="Vector" d="M10.54 4.68L29.45 4.68C30.09 4.68 30.62 5.21 30.62 5.85C30.62 6.5 30.09 7.03 29.45 7.03L22.34 7.03C20.4 7.03 18.82 8.6 18.82 10.54L18.82 11.71L21.17 11.71L21.17 10.54C21.17 9.9 21.69 9.37 22.34 9.37L29.45 9.37C31.39 9.37 32.96 7.79 32.96 5.85C32.96 3.92 31.39 2.34 29.45 2.34L10.54 2.34C9.9 2.34 9.37 1.81 9.37 1.17L9.37 0L7.03 0L7.03 1.17C7.03 3.11 8.6 4.68 10.54 4.68Z" fill="#24AB70" fill-opacity="1.000000" fill-rule="nonzero"/>
	<path id="Vector" d="M31.61 25.78L35.31 25.78C37.89 25.78 40 23.67 40 21.09C40 18.5 37.89 16.4 35.31 16.4L32.96 16.4L32.96 14.06L7.03 14.06L7.03 20C7.03 23 8.04 25.84 9.88 28.12L0 28.12L0 30.46L5.13 30.46L7.47 35.15L32.52 35.15L34.86 30.46L40 30.46L40 28.12L30.11 28.12C30.7 27.39 31.2 26.61 31.61 25.78ZM35.31 18.75C36.6 18.75 37.65 19.8 37.65 21.09C37.65 22.38 36.6 23.43 35.31 23.43L32.5 23.43C32.81 22.33 32.96 21.17 32.96 20L32.96 18.75L35.31 18.75ZM9.37 20L9.37 16.4L30.62 16.4L30.62 20C30.62 23.15 29.25 26.09 26.84 28.12L13.15 28.12C10.74 26.09 9.37 23.15 9.37 20ZM31.07 32.81L8.92 32.81L7.75 30.46L32.24 30.46L31.07 32.81Z" fill="#24AB70" fill-opacity="1.000000" fill-rule="nonzero"/>
</svg>
