<svg width="26.399902" height="22.879883" viewBox="0 0 26.3999 22.8799" fill="none" xmlns="http://www.w3.org/2000/svg" xmlns:xlink="http://www.w3.org/1999/xlink">
	<desc>
			Created with Pixso.
	</desc>
	<defs/>
	<path id="“" d="M15.68 13.91C15.68 11.67 16.05 9.6 16.79 7.67C17.54 5.76 18.42 4.29 19.43 3.28C20.45 2.21 21.38 1.41 22.24 0.87C23.14 0.29 23.83 0 24.31 0C24.58 0 24.82 0.13 25.04 0.39C25.25 0.61 25.35 0.8 25.35 0.95C25.35 1.28 25.12 1.65 24.64 2.08C24.16 2.45 23.65 2.85 23.12 3.28C22.58 3.7 22.08 4.42 21.6 5.43C21.12 6.45 20.87 7.65 20.87 9.04C20.87 10.48 21.17 11.7 21.75 12.72C22.34 13.67 22.96 14.34 23.6 14.72C24.29 15.09 24.93 15.54 25.52 16.08C26.1 16.56 26.39 17.12 26.39 17.76C26.39 18.08 25.68 18.95 24.24 20.39C24.13 20.5 23.83 20.85 23.35 21.43C22.93 21.97 22.53 22.34 22.16 22.56C21.83 22.77 21.46 22.87 21.04 22.87C20.87 22.87 20.61 22.8 20.24 22.63C19.86 22.42 19.41 22.08 18.87 21.6C18.34 21.12 17.83 20.56 17.35 19.91C16.87 19.28 16.48 18.42 16.16 17.36C15.83 16.29 15.68 15.14 15.68 13.91ZM0 13.91C0 11.67 0.37 9.6 1.12 7.67C1.86 5.76 2.74 4.29 3.75 3.28C4.82 2.21 5.78 1.41 6.64 0.87C7.54 0.29 8.24 0 8.72 0C8.98 0 9.22 0.13 9.43 0.39C9.65 0.61 9.75 0.8 9.75 0.95C9.75 1.28 9.52 1.65 9.04 2.08C8.61 2.45 8.1 2.85 7.52 3.28C6.93 3.7 6.39 4.42 5.91 5.43C5.49 6.45 5.27 7.65 5.27 9.04C5.27 10.48 5.57 11.7 6.16 12.72C6.74 13.67 7.35 14.34 8 14.72C8.69 15.09 9.33 15.54 9.91 16.08C10.5 16.56 10.79 17.12 10.79 17.76C10.79 18.08 10.08 18.95 8.64 20.39C8.53 20.5 8.24 20.85 7.75 21.43C7.33 21.97 6.93 22.34 6.56 22.56C6.24 22.77 5.86 22.87 5.43 22.87C5.06 22.87 4.47 22.61 3.68 22.08C2.93 21.54 2.13 20.56 1.27 19.12C0.42 17.62 0 15.89 0 13.91Z" fill="#24AB70" fill-opacity="1.000000" fill-rule="nonzero"/>
</svg>
