<svg width="23.437500" height="40.000000" viewBox="0 0 23.4375 40" fill="none" xmlns="http://www.w3.org/2000/svg" xmlns:xlink="http://www.w3.org/1999/xlink">
	<desc>
			Created with Pixso.
	</desc>
	<defs/>
	<path id="Vector" d="M2.99 39.87C3.48 40.12 4.08 39.99 4.43 39.55L23.18 16.04C23.46 15.69 23.51 15.2 23.32 14.8C23.12 14.39 22.71 14.14 22.26 14.14L14.78 14.14L20.97 1.69C21.15 1.33 21.13 0.89 20.91 0.55C20.7 0.2 20.32 0 19.92 0L5.85 0C5.32 0 4.85 0.36 4.72 0.88L0.03 19.71C-0.06 20.06 0.02 20.43 0.24 20.72C0.47 21 0.81 21.17 1.17 21.17L6.7 21.17L2.37 38.54C2.24 39.07 2.5 39.63 2.99 39.87ZM9.34 20.28C9.42 19.93 9.34 19.56 9.12 19.27C8.9 18.99 8.56 18.82 8.2 18.82L2.67 18.82L6.77 2.34L18.03 2.34L11.84 14.79C11.66 15.15 11.68 15.58 11.89 15.92C12.1 16.27 12.48 16.48 12.89 16.48L19.83 16.48L5.95 33.89L9.34 20.28Z" fill="#24AB70" fill-opacity="1.000000" fill-rule="nonzero"/>
</svg>
