<svg width="40.000000" height="26.086914" viewBox="0 0 40 26.0869" fill="none" xmlns="http://www.w3.org/2000/svg" xmlns:xlink="http://www.w3.org/1999/xlink">
	<desc>
			Created with Pixso.
	</desc>
	<defs/>
	<path id="Vector" d="M37.39 5.21L35.65 5.21C35.34 5.21 35.05 5.28 34.78 5.37L34.78 2.6C34.78 1.17 33.61 0 32.17 0L30.43 0C28.99 0 27.82 1.17 27.82 2.6L27.82 8.69L12.17 8.69L12.17 2.6C12.17 1.17 11 0 9.56 0L7.82 0C6.38 0 5.21 1.17 5.21 2.6L5.21 5.37C4.94 5.28 4.65 5.21 4.34 5.21L2.6 5.21C1.17 5.21 0 6.38 0 7.82L0 18.26C0 19.69 1.17 20.86 2.6 20.86L4.34 20.86C4.65 20.86 4.94 20.8 5.21 20.7L5.21 23.47C5.21 24.91 6.38 26.08 7.82 26.08L9.56 26.08C11 26.08 12.17 24.91 12.17 23.47L12.17 17.39L27.82 17.39L27.82 23.47C27.82 24.91 28.99 26.08 30.43 26.08L32.17 26.08C33.61 26.08 34.78 24.91 34.78 23.47L34.78 20.7C35.05 20.8 35.34 20.86 35.65 20.86L37.39 20.86C38.82 20.86 40 19.69 40 18.26L40 7.82C40 6.38 38.82 5.21 37.39 5.21ZM5.21 18.26C5.21 18.74 4.82 19.13 4.34 19.13L2.6 19.13C2.12 19.13 1.73 18.74 1.73 18.26L1.73 7.82C1.73 7.34 2.12 6.95 2.6 6.95L4.34 6.95C4.82 6.95 5.21 7.34 5.21 7.82L5.21 18.26ZM10.43 23.47C10.43 23.95 10.04 24.34 9.56 24.34L7.82 24.34C7.34 24.34 6.95 23.95 6.95 23.47L6.95 18.26L6.95 7.82L6.95 2.6C6.95 2.12 7.34 1.73 7.82 1.73L9.56 1.73C10.04 1.73 10.43 2.12 10.43 2.6L10.43 23.47ZM27.82 15.65L12.17 15.65L12.17 10.43L27.82 10.43L27.82 15.65ZM33.04 7.82L33.04 18.26L33.04 23.47C33.04 23.95 32.65 24.34 32.17 24.34L30.43 24.34C29.95 24.34 29.56 23.95 29.56 23.47L29.56 2.6C29.56 2.12 29.95 1.73 30.43 1.73L32.17 1.73C32.65 1.73 33.04 2.12 33.04 2.6L33.04 7.82ZM38.26 18.26C38.26 18.74 37.87 19.13 37.39 19.13L35.65 19.13C35.17 19.13 34.78 18.74 34.78 18.26L34.78 7.82C34.78 7.34 35.17 6.95 35.65 6.95L37.39 6.95C37.87 6.95 38.26 7.34 38.26 7.82L38.26 18.26Z" fill="#24AB70" fill-opacity="1.000000" fill-rule="nonzero"/>
</svg>
