<svg width="16.000000" height="16.000000" viewBox="0 0 16 16" fill="none" xmlns="http://www.w3.org/2000/svg" xmlns:xlink="http://www.w3.org/1999/xlink">
	<desc>
			Created with Pixso.
	</desc>
	<defs/>
	<path id="Vector" d="M16 8C16 3.58 12.41 0 8 0C3.58 0 0 3.58 0 8C0 11.99 2.92 15.3 6.75 15.9L6.75 10.31L4.71 10.31L4.71 8L6.75 8L6.75 6.23C6.75 4.23 7.94 3.12 9.77 3.12C10.64 3.12 11.56 3.28 11.56 3.28L11.56 5.25L10.55 5.25C9.56 5.25 9.25 5.86 9.25 6.49L9.25 8L11.46 8L11.11 10.31L9.25 10.31L9.25 15.9C13.07 15.3 16 11.99 16 8Z" fill="#1877F2" fill-opacity="1.000000" fill-rule="nonzero"/>
	<path id="Vector" d="M11.11 10.31L11.46 8L9.25 8L9.25 6.49C9.25 5.86 9.56 5.25 10.55 5.25L11.56 5.25L11.56 3.28C11.56 3.28 10.64 3.12 9.77 3.12C7.94 3.12 6.75 4.23 6.75 6.23L6.75 8L4.71 8L4.71 10.31L6.75 10.31L6.75 15.9C7.16 15.96 7.58 16 8 16C8.42 16 8.84 15.96 9.25 15.9L9.25 10.31L11.11 10.31Z" fill="#FFFFFF" fill-opacity="1.000000" fill-rule="nonzero"/>
</svg>
