<svg width="16.000000" height="16.000000" viewBox="0 0 16 16" fill="none" xmlns="http://www.w3.org/2000/svg" xmlns:xlink="http://www.w3.org/1999/xlink">
	<desc>
			Created with Pixso.
	</desc>
	<defs>
		<radialGradient gradientTransform="translate(4.25002 17.2323) rotate(-90) scale(15.8572 14.7484)" cx="0.000000" cy="0.000000" r="1.000000" id="paint_radial_4029_328_0" gradientUnits="userSpaceOnUse">
			<stop stop-color="#FFDD55"/>
			<stop offset="0.100000" stop-color="#FFDD55"/>
			<stop offset="0.500000" stop-color="#FF543E"/>
			<stop offset="1.000000" stop-color="#C837AB"/>
		</radialGradient>
		<radialGradient gradientTransform="translate(-2.68009 1.15261) rotate(78.6807) scale(7.08823 29.218)" cx="0.000000" cy="0.000000" r="1.000000" id="paint_radial_4029_329_0" gradientUnits="userSpaceOnUse">
			<stop stop-color="#3771C8"/>
			<stop offset="0.128000" stop-color="#3771C8"/>
			<stop offset="1.000000" stop-color="#6600FF" stop-opacity="0.000000"/>
		</radialGradient>
	</defs>
	<path id="Vector" d="M8 0C4.66 0 3.68 0 3.49 0.01C2.81 0.07 2.38 0.18 1.91 0.41C1.56 0.59 1.27 0.79 1 1.08C0.49 1.61 0.18 2.26 0.07 3.03C0.01 3.4 0 3.48 0 5.39C-0.01 6.03 0 6.87 0 7.99C0 11.33 0 12.31 0.02 12.5C0.07 13.16 0.18 13.58 0.4 14.04C0.82 14.92 1.63 15.58 2.58 15.83C2.91 15.91 3.27 15.96 3.74 15.98C3.94 15.99 5.96 16 7.98 16C10 16 12.02 15.99 12.21 15.98C12.76 15.96 13.07 15.91 13.42 15.83C13.89 15.7 14.33 15.48 14.71 15.17C15.09 14.86 15.39 14.48 15.6 14.04C15.82 13.59 15.93 13.15 15.98 12.52C15.99 12.38 16 10.18 16 7.99C16 5.79 15.99 3.6 15.98 3.46C15.93 2.82 15.82 2.39 15.59 1.93C15.41 1.56 15.21 1.28 14.91 0.99C14.38 0.49 13.73 0.18 12.96 0.07C12.59 0.01 12.51 0 10.6 0L8 0Z" fill="url(#paint_radial_4029_328_0)" fill-opacity="1.000000" fill-rule="nonzero"/>
	<path id="Vector" d="M8 0C4.66 0 3.68 0 3.49 0.01C2.81 0.07 2.38 0.18 1.91 0.41C1.56 0.59 1.27 0.79 1 1.08C0.49 1.61 0.18 2.26 0.07 3.03C0.01 3.4 0 3.48 0 5.39C-0.01 6.03 0 6.87 0 7.99C0 11.33 0 12.31 0.02 12.5C0.07 13.16 0.18 13.58 0.4 14.04C0.82 14.92 1.63 15.58 2.58 15.83C2.91 15.91 3.27 15.96 3.74 15.98C3.94 15.99 5.96 16 7.98 16C10 16 12.02 15.99 12.21 15.98C12.76 15.96 13.07 15.91 13.42 15.83C13.89 15.7 14.33 15.48 14.71 15.17C15.09 14.86 15.39 14.48 15.6 14.04C15.82 13.59 15.93 13.15 15.98 12.52C15.99 12.38 16 10.18 16 7.99C16 5.79 15.99 3.6 15.98 3.46C15.93 2.82 15.82 2.39 15.59 1.93C15.41 1.56 15.21 1.28 14.91 0.99C14.38 0.49 13.73 0.18 12.96 0.07C12.59 0.01 12.51 0 10.6 0L8 0Z" fill="url(#paint_radial_4029_329_0)" fill-opacity="1.000000" fill-rule="nonzero"/>
	<path id="Vector" d="M7.99 2.09C6.39 2.09 6.19 2.09 5.56 2.12C4.93 2.15 4.5 2.25 4.12 2.4C3.74 2.55 3.41 2.75 3.08 3.08C2.75 3.41 2.55 3.74 2.4 4.13C2.25 4.5 2.15 4.93 2.12 5.56C2.09 6.19 2.09 6.39 2.09 8C2.09 9.6 2.09 9.8 2.12 10.43C2.15 11.06 2.25 11.49 2.4 11.86C2.55 12.25 2.75 12.58 3.08 12.91C3.41 13.24 3.74 13.44 4.12 13.59C4.5 13.74 4.93 13.84 5.56 13.87C6.19 13.9 6.39 13.9 7.99 13.9C9.6 13.9 9.8 13.9 10.43 13.87C11.06 13.84 11.49 13.74 11.86 13.59C12.25 13.44 12.58 13.24 12.91 12.91C13.24 12.58 13.44 12.25 13.59 11.87C13.73 11.49 13.83 11.06 13.86 10.43C13.89 9.8 13.9 9.6 13.9 8C13.9 6.39 13.89 6.19 13.86 5.56C13.83 4.93 13.73 4.5 13.59 4.13C13.44 3.74 13.24 3.41 12.91 3.08C12.58 2.75 12.25 2.55 11.86 2.4C11.49 2.25 11.06 2.15 10.43 2.12C9.8 2.09 9.6 2.09 7.99 2.09L7.99 2.09ZM7.46 3.15C7.62 3.15 7.8 3.15 7.99 3.15C9.57 3.15 9.76 3.16 10.38 3.19C10.96 3.21 11.27 3.31 11.48 3.39C11.75 3.5 11.95 3.62 12.16 3.83C12.36 4.04 12.49 4.23 12.6 4.51C12.68 4.72 12.78 5.03 12.8 5.61C12.83 6.23 12.84 6.42 12.84 7.99C12.84 9.57 12.83 9.76 12.8 10.38C12.77 10.96 12.68 11.27 12.6 11.48C12.49 11.75 12.36 11.95 12.16 12.16C11.95 12.36 11.75 12.49 11.48 12.6C11.27 12.68 10.96 12.78 10.38 12.8C9.76 12.83 9.57 12.84 7.99 12.84C6.42 12.84 6.23 12.83 5.61 12.8C5.03 12.78 4.72 12.68 4.51 12.6C4.23 12.49 4.04 12.36 3.83 12.16C3.62 11.95 3.5 11.75 3.39 11.48C3.31 11.27 3.21 10.96 3.19 10.38C3.16 9.76 3.15 9.57 3.15 7.99C3.15 6.41 3.16 6.23 3.19 5.61C3.21 5.03 3.31 4.72 3.39 4.51C3.5 4.23 3.62 4.04 3.83 3.83C4.04 3.62 4.23 3.49 4.51 3.39C4.72 3.31 5.03 3.21 5.61 3.18C6.15 3.16 6.36 3.15 7.46 3.15L7.46 3.15ZM11.15 4.13C11.01 4.13 10.87 4.17 10.75 4.25C10.64 4.33 10.55 4.44 10.49 4.57C10.44 4.7 10.42 4.84 10.45 4.98C10.48 5.12 10.55 5.24 10.65 5.34C10.74 5.44 10.87 5.51 11.01 5.54C11.15 5.56 11.29 5.55 11.42 5.5C11.55 5.44 11.66 5.35 11.74 5.24C11.81 5.12 11.86 4.98 11.86 4.84C11.86 4.45 11.54 4.13 11.15 4.13L11.15 4.13ZM7.99 4.96C6.32 4.96 4.96 6.32 4.96 8C4.96 9.67 6.32 11.03 7.99 11.03C9.67 11.03 11.03 9.67 11.03 8C11.03 6.32 9.67 4.96 7.99 4.96L7.99 4.96ZM7.99 6.03C9.08 6.03 9.96 6.91 9.96 8C9.96 9.08 9.08 9.96 7.99 9.96C6.91 9.96 6.02 9.08 6.02 8C6.02 6.91 6.91 6.03 7.99 6.03Z" fill="#FFFFFF" fill-opacity="1.000000" fill-rule="nonzero"/>
</svg>
