<svg width="40.000000" height="40.000000" viewBox="0 0 40 40" fill="none" xmlns="http://www.w3.org/2000/svg" xmlns:xlink="http://www.w3.org/1999/xlink">
	<desc>
			Created with Pixso.
	</desc>
	<defs>
		<clipPath id="clip4029_205">
			<rect id="ellipsis 1" rx="0.000000" width="39.000000" height="39.000000" transform="translate(0.500000 0.500000)" fill="white" fill-opacity="0"/>
		</clipPath>
	</defs>
	<rect id="ellipsis 1" rx="0.000000" width="39.000000" height="39.000000" transform="translate(0.500000 0.500000)" fill="#FFFFFF" fill-opacity="0"/>
	<g clip-path="url(#clip4029_205)">
		<path id="Vector" d="M5 25C2.24 25 0 22.75 0 20C0 17.24 2.24 15 5 15C7.75 15 10 17.24 10 20C10 22.75 7.75 25 5 25ZM5 16.66C3.16 16.66 1.66 18.16 1.66 20C1.66 21.83 3.16 23.33 5 23.33C6.83 23.33 8.33 21.83 8.33 20C8.33 18.16 6.83 16.66 5 16.66Z" fill="#24AB70" fill-opacity="1.000000" fill-rule="nonzero"/>
		<path id="Vector" d="M20 25C17.24 25 15 22.75 15 20C15 17.24 17.24 15 20 15C22.75 15 25 17.24 25 20C25 22.75 22.75 25 20 25ZM20 16.66C18.16 16.66 16.66 18.16 16.66 20C16.66 21.83 18.16 23.33 20 23.33C21.83 23.33 23.33 21.83 23.33 20C23.33 18.16 21.83 16.66 20 16.66Z" fill="#24AB70" fill-opacity="1.000000" fill-rule="nonzero"/>
		<path id="Vector" d="M35 25C32.24 25 30 22.75 30 20C30 17.24 32.24 15 35 15C37.75 15 40 17.24 40 20C40 22.75 37.75 25 35 25ZM35 16.66C33.16 16.66 31.66 18.16 31.66 20C31.66 21.83 33.16 23.33 35 23.33C36.83 23.33 38.33 21.83 38.33 20C38.33 18.16 36.83 16.66 35 16.66Z" fill="#24AB70" fill-opacity="1.000000" fill-rule="nonzero"/>
	</g>
</svg>
