<svg width="34.368652" height="40.000000" viewBox="0 0 34.3687 40" fill="none" xmlns="http://www.w3.org/2000/svg" xmlns:xlink="http://www.w3.org/1999/xlink">
	<desc>
			Created with Pixso.
	</desc>
	<defs/>
	<path id="Vector" d="M18.31 7.67L13.66 7.67C13 7.67 12.49 8.2 12.49 8.84L12.49 25.53C12.49 26.17 13.01 26.7 13.66 26.7C14.31 26.7 14.83 26.17 14.83 25.53L14.83 19.44C15.92 19.44 17.51 19.43 18.31 19.43C19.88 19.43 21.37 18.82 22.5 17.72C23.65 16.6 24.28 15.12 24.28 13.55C24.28 11.98 23.65 10.5 22.5 9.38C21.37 8.27 19.88 7.67 18.31 7.67ZM18.31 17.09C17.52 17.09 15.95 17.09 14.86 17.1C14.84 13.45 14.85 14.68 14.84 10.01L18.31 10.01C20.27 10.01 21.94 11.63 21.94 13.55C21.94 15.47 20.27 17.09 18.31 17.09Z" fill="#24AB70" fill-opacity="1.000000" fill-rule="nonzero"/>
	<path id="Vector" d="M29.33 5.03C26.09 1.78 21.77 0 17.18 0C12.59 0 8.27 1.78 5.03 5.03C-4.41 14.47 0.07 30.73 13.12 33.89L13.12 38.04C13.12 39.12 13.99 40 15.07 40L19.29 40C20.37 40 21.24 39.12 21.24 38.04L21.24 33.89C34.3 30.73 38.76 14.46 29.33 5.03ZM18.9 37.65L15.46 37.65L15.46 34.28C16.6 34.4 17.76 34.4 18.9 34.28L18.9 37.65ZM19.86 31.79C10.82 33.43 2.34 26.54 2.34 17.18C2.34 9 8.99 2.34 17.18 2.34C25.36 2.34 32.02 9 32.02 17.18C32.02 24.35 26.92 30.5 19.86 31.79Z" fill="#24AB70" fill-opacity="1.000000" fill-rule="nonzero"/>
</svg>
