<svg width="40.000000" height="40.000000" viewBox="0 0 40 40" fill="none" xmlns="http://www.w3.org/2000/svg" xmlns:xlink="http://www.w3.org/1999/xlink">
	<desc>
			Created with Pixso.
	</desc>
	<defs/>
	<rect id="starlink-icon" width="40.000000" height="40.000000" fill="#FFFFFF" fill-opacity="0"/>
	<path id="path" d="M35.42 7.67C30.04 6.49 26.86 4.83 24.54 3.62C22.74 2.68 21.44 2 20 2C18.55 2 17.25 2.68 15.45 3.62C13.13 4.83 9.95 6.49 4.57 7.67L4 7.79L4 8.37C4 30.39 19.53 37.78 19.69 37.85L20.01 38L20.32 37.84C20.48 37.75 36 29.66 36 8.37L36 7.79L35.42 7.67ZM22.9 24.76L17.09 24.76L18.4 18.87C17.61 18.35 17.09 17.47 17.09 16.45C17.09 14.85 18.39 13.56 20 13.56C21.6 13.56 22.9 14.85 22.9 16.45C22.9 17.47 22.38 18.35 21.59 18.87L22.9 24.76Z" fill="#000000" fill-opacity="0" fill-rule="nonzero"/>
	<path id="path" d="M24.54 3.62C22.74 2.68 21.44 2 20 2C18.55 2 17.25 2.68 15.45 3.62C13.13 4.83 9.95 6.49 4.57 7.67L4 7.79L4 8.37C4 30.39 19.53 37.78 19.69 37.85L20.01 38L20.32 37.84C20.48 37.75 36 29.66 36 8.37L36 7.79L35.42 7.67C30.04 6.49 26.86 4.83 24.54 3.62ZM17.09 24.76L18.4 18.87C17.61 18.35 17.09 17.47 17.09 16.45C17.09 14.85 18.39 13.56 20 13.56C21.6 13.56 22.9 14.85 22.9 16.45C22.9 17.47 22.38 18.35 21.59 18.87L22.9 24.76L17.09 24.76Z" stroke="#FFFFFF" stroke-opacity="1.000000" stroke-width="1.000000"/>
</svg>
