<?xml version="1.0" encoding="utf-8"?><svg xmlns="http://www.w3.org/2000/svg" xmlns:xlink="http://www.w3.org/1999/xlink"><symbol fill="none" viewBox="0 0 21.096 12.09" id="arrow-down" xmlns="http://www.w3.org/2000/svg"><path d="m1.54 1.54 9 9 9-9" stroke="#1D263A" stroke-width="3.083" stroke-linejoin="round" stroke-linecap="round"/></symbol><symbol fill="none" viewBox="0 0 40 35.156" id="breakfast" xmlns="http://www.w3.org/2000/svg"><path d="M10.54 4.68h18.91c.64 0 1.17.53 1.17 1.17 0 .65-.53 1.18-1.17 1.18h-7.11c-1.94 0-3.52 1.57-3.52 3.51v1.17h2.35v-1.17c0-.64.52-1.17 1.17-1.17h7.11a3.515 3.515 0 0 0 0-7.03H10.54c-.64 0-1.17-.53-1.17-1.17V0H7.03v1.17c0 1.94 1.57 3.51 3.51 3.51ZM31.61 25.78h3.7c2.58 0 4.69-2.11 4.69-4.69 0-2.59-2.11-4.69-4.69-4.69h-2.35v-2.34H7.03V20c0 3 1.01 5.84 2.85 8.12H0v2.34h5.13l2.34 4.69h25.05l2.34-4.69H40v-2.34h-9.89c.59-.73 1.09-1.51 1.5-2.34Zm3.7-7.03c1.29 0 2.34 1.05 2.34 2.34 0 1.29-1.05 2.34-2.34 2.34H32.5c.31-1.1.46-2.26.46-3.43v-1.25h2.35ZM9.37 20v-3.6h21.25V20c0 3.15-1.37 6.09-3.78 8.12H13.15A10.56 10.56 0 0 1 9.37 20Zm21.7 12.81H8.92l-1.17-2.35h24.49l-1.17 2.35Z" fill="#24AB70"/></symbol><symbol fill="none" viewBox="0 0 24 24" id="check-in-out" xmlns="http://www.w3.org/2000/svg"><path d="M18 4h-1V3a1 1 0 0 0-.3-.71A.984.984 0 0 0 16 2a.99.99 0 0 0-1 1v1H9V3a1 1 0 0 0-.3-.71A.984.984 0 0 0 8 2a.99.99 0 0 0-1 1v1H6c-.8 0-1.56.31-2.13.87C3.31 5.44 3 6.2 3 7v12c0 .79.31 1.55.87 2.12.57.56 1.33.88 2.13.88h12c.79 0 1.55-.32 2.12-.88.56-.57.88-1.33.88-2.12V7c0-.8-.32-1.56-.88-2.13C19.55 4.31 18.79 4 18 4ZM8 17a1.014 1.014 0 0 1-.93-.62c-.07-.18-.09-.39-.06-.58.04-.19.14-.37.28-.51s.32-.24.51-.28c.19-.03.4-.01.58.06.18.08.34.21.45.37.11.16.17.36.17.56 0 .26-.11.51-.3.7-.19.19-.44.3-.7.3Zm8 0h-4a1 1 0 0 1-.71-.3.984.984 0 0 1-.29-.7.99.99 0 0 1 1-1h4c.26 0 .51.1.7.29a1 1 0 0 1 .3.71c0 .26-.11.51-.3.7-.19.19-.44.3-.7.3Zm3-6H5V7a.99.99 0 0 1 1-1h1v1c0 .26.1.51.29.7A1 1 0 0 0 8 8c.26 0 .51-.11.7-.3.19-.19.3-.44.3-.7V6h6v1c0 .26.1.51.29.7A1 1 0 0 0 16 8c.26 0 .51-.11.7-.3.19-.19.3-.44.3-.7V6h1c.26 0 .51.1.7.29A1 1 0 0 1 19 7v4Z" fill="#24AB70"/></symbol><symbol fill="none" viewBox="0 0 26.4 22.88" id="citate" xmlns="http://www.w3.org/2000/svg"><path d="M15.68 13.91c0-2.24.37-4.31 1.11-6.24.75-1.91 1.63-3.38 2.64-4.39 1.02-1.07 1.95-1.87 2.81-2.41.9-.58 1.59-.87 2.07-.87.27 0 .51.13.73.39.21.22.31.41.31.56 0 .33-.23.7-.71 1.13-.48.37-.99.77-1.52 1.2-.54.42-1.04 1.14-1.52 2.15-.48 1.02-.73 2.22-.73 3.61 0 1.44.3 2.66.88 3.68.59.95 1.21 1.62 1.85 2 .69.37 1.33.82 1.92 1.36.58.48.87 1.04.87 1.68 0 .32-.71 1.19-2.15 2.63-.11.11-.41.46-.89 1.04-.42.54-.82.91-1.19 1.13-.33.21-.7.31-1.12.31-.17 0-.43-.07-.8-.24-.38-.21-.83-.55-1.37-1.03-.53-.48-1.04-1.04-1.52-1.69-.48-.63-.87-1.49-1.19-2.55-.33-1.07-.48-2.22-.48-3.45ZM0 13.91c0-2.24.37-4.31 1.12-6.24.74-1.91 1.62-3.38 2.63-4.39C4.82 2.21 5.78 1.41 6.64.87 7.54.29 8.24 0 8.72 0c.26 0 .5.13.71.39.22.22.32.41.32.56 0 .33-.23.7-.71 1.13-.43.37-.94.77-1.52 1.2-.59.42-1.13 1.14-1.61 2.15-.42 1.02-.64 2.22-.64 3.61 0 1.44.3 2.66.89 3.68.58.95 1.19 1.62 1.84 2 .69.37 1.33.82 1.91 1.36.59.48.88 1.04.88 1.68 0 .32-.71 1.19-2.15 2.63-.11.11-.4.46-.89 1.04-.42.54-.82.91-1.19 1.13-.32.21-.7.31-1.13.31-.37 0-.96-.26-1.75-.79-.75-.54-1.55-1.52-2.41-2.96C.42 17.62 0 15.89 0 13.91Z" fill="#24AB70"/></symbol><symbol fill="none" viewBox="0 0 23.438 40" id="electricity" xmlns="http://www.w3.org/2000/svg"><path d="M2.99 39.87c.49.25 1.09.12 1.44-.32l18.75-23.51c.28-.35.33-.84.14-1.24-.2-.41-.61-.66-1.06-.66h-7.48l6.19-12.45c.18-.36.16-.8-.06-1.14C20.7.2 20.32 0 19.92 0H5.85c-.53 0-1 .36-1.13.88L.03 19.71c-.09.35-.01.72.21 1.01.23.28.57.45.93.45H6.7L2.37 38.54c-.13.53.13 1.09.62 1.33Zm6.35-19.59c.08-.35 0-.72-.22-1.01-.22-.28-.56-.45-.92-.45H2.67l4.1-16.48h11.26l-6.19 12.45c-.18.36-.16.79.05 1.13.21.35.59.56 1 .56h6.94L5.95 33.89l3.39-13.61Z" fill="#24AB70"/></symbol><symbol fill="none" viewBox="0 0 40 26.087" id="exercise" xmlns="http://www.w3.org/2000/svg"><path d="M37.39 5.21h-1.74c-.31 0-.6.07-.87.16V2.6c0-1.43-1.17-2.6-2.61-2.6h-1.74a2.61 2.61 0 0 0-2.61 2.6v6.09H12.17V2.6C12.17 1.17 11 0 9.56 0H7.82a2.61 2.61 0 0 0-2.61 2.6v2.77c-.27-.09-.56-.16-.87-.16H2.6A2.61 2.61 0 0 0 0 7.82v10.44c0 1.43 1.17 2.6 2.6 2.6h1.74c.31 0 .6-.06.87-.16v2.77c0 1.44 1.17 2.61 2.61 2.61h1.74c1.44 0 2.61-1.17 2.61-2.61v-6.08h15.65v6.08c0 1.44 1.17 2.61 2.61 2.61h1.74c1.44 0 2.61-1.17 2.61-2.61V20.7c.27.1.56.16.87.16h1.74c1.43 0 2.61-1.17 2.61-2.6V7.82c0-1.44-1.18-2.61-2.61-2.61ZM5.21 18.26c0 .48-.39.87-.87.87H2.6a.87.87 0 0 1-.87-.87V7.82c0-.48.39-.87.87-.87h1.74c.48 0 .87.39.87.87v10.44Zm5.22 5.21c0 .48-.39.87-.87.87H7.82a.87.87 0 0 1-.87-.87V2.6c0-.48.39-.87.87-.87h1.74c.48 0 .87.39.87.87v20.87Zm17.39-7.82H12.17v-5.22h15.65v5.22Zm5.22-7.83V23.47c0 .48-.39.87-.87.87h-1.74a.87.87 0 0 1-.87-.87V2.6c0-.48.39-.87.87-.87h1.74c.48 0 .87.39.87.87v5.22Zm5.22 10.44c0 .48-.39.87-.87.87h-1.74a.87.87 0 0 1-.87-.87V7.82c0-.48.39-.87.87-.87h1.74c.48 0 .87.39.87.87v10.44Z" fill="#24AB70"/></symbol><symbol fill="none" viewBox="0 0 16 16" id="facebook" xmlns="http://www.w3.org/2000/svg"><path d="M16 8c0-4.42-3.59-8-8-8-4.42 0-8 3.58-8 8 0 3.99 2.92 7.3 6.75 7.9v-5.59H4.71V8h2.04V6.23c0-2 1.19-3.11 3.02-3.11.87 0 1.79.16 1.79.16v1.97h-1.01c-.99 0-1.3.61-1.3 1.24V8h2.21l-.35 2.31H9.25v5.59C13.07 15.3 16 11.99 16 8Z" fill="#1877F2"/><path d="M11.11 10.31 11.46 8H9.25V6.49c0-.63.31-1.24 1.3-1.24h1.01V3.28s-.92-.16-1.79-.16c-1.83 0-3.02 1.11-3.02 3.11V8H4.71v2.31h2.04v5.59c.41.06.83.1 1.25.1.42 0 .84-.04 1.25-.1v-5.59h1.86Z" fill="#FFF"/></symbol><symbol fill="none" viewBox="0 0 16 16" id="google" xmlns="http://www.w3.org/2000/svg"><defs><clipPath id="ha"><rect rx="0" width="15" height="15" transform="translate(.5 .5)" fill="#fff" fill-opacity="0"/></clipPath></defs><rect rx="0" width="15" height="15" transform="translate(.5 .5)" fill="none"/><g clip-path="url(#ha)"><path d="m3.54 9.66-.56 2.08-2.03.05A7.948 7.948 0 0 1 0 8c0-1.33.32-2.58.89-3.68l1.81.33.8 1.8c-.17.48-.26 1-.26 1.55 0 .58.11 1.14.3 1.66Z" fill="#FBBB00"/><path d="M15.86 6.5c.09.48.14.98.14 1.49a7.986 7.986 0 0 1-3 6.24l-2.28-.11-.32-2.02c.93-.55 1.66-1.41 2.05-2.43H8.17V6.5H15.86Z" fill="#518EF8"/><path d="M13 14.23A7.914 7.914 0 0 1 8 16c-3.05 0-5.7-1.71-7.05-4.21l2.59-2.13a4.761 4.761 0 0 0 6.86 2.44l2.6 2.13Z" fill="#28B446"/><path d="m13.1 1.84-2.59 2.12C9.78 3.5 8.92 3.24 8 3.24a4.75 4.75 0 0 0-4.5 3.21L.89 4.32A7.988 7.988 0 0 1 8 0c1.94 0 3.72.69 5.1 1.84Z" fill="#F14336"/></g></symbol><symbol fill="none" viewBox="0 0 24 24" id="guest" xmlns="http://www.w3.org/2000/svg"><path d="M12 11a4.02 4.02 0 0 0 3.69-2.47c.3-.74.38-1.54.23-2.32a4.048 4.048 0 0 0-3.14-3.14C12 2.92 11.2 3 10.46 3.3c-.73.3-1.35.81-1.79 1.47C8.23 5.43 8 6.2 8 7c0 1.06.42 2.07 1.17 2.82S10.93 11 12 11ZM18 21c.26 0 .51-.11.7-.3.19-.19.3-.44.3-.7 0-1.86-.74-3.64-2.06-4.95A6.953 6.953 0 0 0 12 13c-1.86 0-3.64.73-4.95 2.05A6.96 6.96 0 0 0 5 20c0 .26.1.51.29.7A1 1 0 0 0 6 21h12Z" fill="#24AB70"/></symbol><symbol fill="none" viewBox="0 0 16 16" id="instagram" xmlns="http://www.w3.org/2000/svg"><defs><radialGradient gradientTransform="matrix(0 -15.8572 14.7484 0 4.25 17.232)" cx="0" cy="0" r="1" id="ja" gradientUnits="userSpaceOnUse"><stop stop-color="#FD5"/><stop offset=".1" stop-color="#FD5"/><stop offset=".5" stop-color="#FF543E"/><stop offset="1" stop-color="#C837AB"/></radialGradient><radialGradient gradientTransform="matrix(1.39125 6.95035 -28.64967 5.7348 -2.68 1.153)" cx="0" cy="0" r="1" id="jb" gradientUnits="userSpaceOnUse"><stop stop-color="#3771C8"/><stop offset=".128" stop-color="#3771C8"/><stop offset="1" stop-color="#60F" stop-opacity="0"/></radialGradient></defs><path d="M8 0C4.66 0 3.68 0 3.49.01c-.68.06-1.11.17-1.58.4-.35.18-.64.38-.91.67-.51.53-.82 1.18-.93 1.95C.01 3.4 0 3.48 0 5.39c-.01.64 0 1.48 0 2.6 0 3.34 0 4.32.02 4.51.05.66.16 1.08.38 1.54.42.88 1.23 1.54 2.18 1.79.33.08.69.13 1.16.15.2.01 2.22.02 4.24.02s4.04-.01 4.23-.02c.55-.02.86-.07 1.21-.15.47-.13.91-.35 1.29-.66.38-.31.68-.69.89-1.13.22-.45.33-.89.38-1.52.01-.14.02-2.34.02-4.53 0-2.2-.01-4.39-.02-4.53-.05-.64-.16-1.07-.39-1.53a3.14 3.14 0 0 0-.68-.94c-.53-.5-1.18-.81-1.95-.92C12.59.01 12.51 0 10.6 0H8Z" fill="url(#ja)"/><path d="M8 0C4.66 0 3.68 0 3.49.01c-.68.06-1.11.17-1.58.4-.35.18-.64.38-.91.67-.51.53-.82 1.18-.93 1.95C.01 3.4 0 3.48 0 5.39c-.01.64 0 1.48 0 2.6 0 3.34 0 4.32.02 4.51.05.66.16 1.08.38 1.54.42.88 1.23 1.54 2.18 1.79.33.08.69.13 1.16.15.2.01 2.22.02 4.24.02s4.04-.01 4.23-.02c.55-.02.86-.07 1.21-.15.47-.13.91-.35 1.29-.66.38-.31.68-.69.89-1.13.22-.45.33-.89.38-1.52.01-.14.02-2.34.02-4.53 0-2.2-.01-4.39-.02-4.53-.05-.64-.16-1.07-.39-1.53a3.14 3.14 0 0 0-.68-.94c-.53-.5-1.18-.81-1.95-.92C12.59.01 12.51 0 10.6 0H8Z" fill="url(#jb)"/><path d="M7.99 2.09c-1.6 0-1.8 0-2.43.03-.63.03-1.06.13-1.44.28-.38.15-.71.35-1.04.68-.33.33-.53.66-.68 1.05-.15.37-.25.8-.28 1.43-.03.63-.03.83-.03 2.44 0 1.6 0 1.8.03 2.43.03.63.13 1.06.28 1.43.15.39.35.72.68 1.05.33.33.66.53 1.04.68.38.15.81.25 1.44.28.63.03.83.03 2.43.03 1.61 0 1.81 0 2.44-.03.63-.03 1.06-.13 1.43-.28.39-.15.72-.35 1.05-.68.33-.33.53-.66.68-1.04.14-.38.24-.81.27-1.44.03-.63.04-.83.04-2.43 0-1.61-.01-1.81-.04-2.44-.03-.63-.13-1.06-.27-1.43-.15-.39-.35-.72-.68-1.05-.33-.33-.66-.53-1.05-.68-.37-.15-.8-.25-1.43-.28-.63-.03-.83-.03-2.44-.03Zm-.53 1.06h.53c1.58 0 1.77.01 2.39.04.58.02.89.12 1.1.2.27.11.47.23.68.44.2.21.33.4.44.68.08.21.18.52.2 1.1.03.62.04.81.04 2.38 0 1.58-.01 1.77-.04 2.39-.03.58-.12.89-.2 1.1-.11.27-.24.47-.44.68-.21.2-.41.33-.68.44-.21.08-.52.18-1.1.2-.62.03-.81.04-2.39.04-1.57 0-1.76-.01-2.38-.04-.58-.02-.89-.12-1.1-.2-.28-.11-.47-.24-.68-.44-.21-.21-.33-.41-.44-.68-.08-.21-.18-.52-.2-1.1-.03-.62-.04-.81-.04-2.39s.01-1.76.04-2.38c.02-.58.12-.89.2-1.1.11-.28.23-.47.44-.68.21-.21.4-.34.68-.44.21-.08.52-.18 1.1-.21.54-.02.75-.03 1.85-.03Zm3.69.98c-.14 0-.28.04-.4.12-.11.08-.2.19-.26.32-.05.13-.07.27-.04.41.03.14.1.26.2.36.09.1.22.17.36.2.14.02.28.01.41-.04.13-.06.24-.15.32-.26.07-.12.12-.26.12-.4 0-.39-.32-.71-.71-.71Zm-3.16.83a3.034 3.034 0 1 0 .009 6.071A3.034 3.034 0 0 0 7.99 4.96Zm0 1.07a1.965 1.965 0 1 1 0 3.93c-1.08 0-1.97-.88-1.97-1.96 0-1.09.89-1.97 1.97-1.97Z" fill="#FFF"/></symbol><symbol fill="none" viewBox="0 0 24 24" id="location" xmlns="http://www.w3.org/2000/svg"><path d="M13.5 9.5c0 .82-.68 1.5-1.5 1.5-.83 0-1.5-.68-1.5-1.5 0-.83.67-1.5 1.5-1.5.82 0 1.5.67 1.5 1.5Z" fill="#24AB70" fill-rule="evenodd"/><path d="M12 2c-2.11-.01-4.14.83-5.63 2.31A7.988 7.988 0 0 0 4 9.92c0 5.48 7.04 11.58 7.35 11.84.18.15.41.24.65.24.23 0 .46-.09.64-.24C13 21.5 20 15.4 20 9.92a8.04 8.04 0 0 0-2.38-5.61A7.946 7.946 0 0 0 12 2Zm0 11c-.7 0-1.37-.21-1.95-.59-.58-.39-1.02-.94-1.29-1.58-.26-.64-.33-1.34-.2-2.02.14-.68.47-1.3.96-1.79s1.11-.82 1.79-.96c.68-.13 1.38-.06 2.02.2.64.27 1.19.71 1.58 1.29.38.58.59 1.25.59 1.95 0 .92-.37 1.81-1.03 2.47-.66.66-1.55 1.03-2.47 1.03Z" fill="#24AB70"/></symbol><symbol fill="none" viewBox="0 0 40 40" id="other-service" xmlns="http://www.w3.org/2000/svg"><defs><clipPath id="la"><rect rx="0" width="39" height="39" transform="translate(.5 .5)" fill="#fff" fill-opacity="0"/></clipPath></defs><rect rx="0" width="39" height="39" transform="translate(.5 .5)" fill="none"/><g clip-path="url(#la)" fill="#24AB70"><path d="M5 25c-2.76 0-5-2.25-5-5 0-2.76 2.24-5 5-5 2.75 0 5 2.24 5 5 0 2.75-2.25 5-5 5Zm0-8.34c-1.84 0-3.34 1.5-3.34 3.34 0 1.83 1.5 3.33 3.34 3.33 1.83 0 3.33-1.5 3.33-3.33 0-1.84-1.5-3.34-3.33-3.34ZM20 25c-2.76 0-5-2.25-5-5 0-2.76 2.24-5 5-5 2.75 0 5 2.24 5 5 0 2.75-2.25 5-5 5Zm0-8.34c-1.84 0-3.34 1.5-3.34 3.34 0 1.83 1.5 3.33 3.34 3.33 1.83 0 3.33-1.5 3.33-3.33 0-1.84-1.5-3.34-3.33-3.34ZM35 25c-2.76 0-5-2.25-5-5 0-2.76 2.24-5 5-5 2.75 0 5 2.24 5 5 0 2.75-2.25 5-5 5Zm0-8.34c-1.84 0-3.34 1.5-3.34 3.34 0 1.83 1.5 3.33 3.34 3.33 1.83 0 3.33-1.5 3.33-3.33 0-1.84-1.5-3.34-3.33-3.34Z"/></g></symbol><symbol fill="none" viewBox="0 0 34.369 40" id="parking" xmlns="http://www.w3.org/2000/svg"><path d="M18.31 7.67h-4.65c-.66 0-1.17.53-1.17 1.17v16.69c0 .64.52 1.17 1.17 1.17.65 0 1.17-.53 1.17-1.17v-6.09c1.09 0 2.68-.01 3.48-.01 1.57 0 3.06-.61 4.19-1.71 1.15-1.12 1.78-2.6 1.78-4.17 0-1.57-.63-3.05-1.78-4.17a5.942 5.942 0 0 0-4.19-1.71Zm0 9.42c-.79 0-2.36 0-3.45.01-.02-3.65-.01-2.42-.02-7.09h3.47c1.96 0 3.63 1.62 3.63 3.54s-1.67 3.54-3.63 3.54Z" fill="#24AB70"/><path d="M29.33 5.03C26.09 1.78 21.77 0 17.18 0 12.59 0 8.27 1.78 5.03 5.03c-9.44 9.44-4.96 25.7 8.09 28.86v4.15c0 1.08.87 1.96 1.95 1.96h4.22c1.08 0 1.95-.88 1.95-1.96v-4.15c13.06-3.16 17.52-19.43 8.09-28.86ZM18.9 37.65h-3.44v-3.37c1.14.12 2.3.12 3.44 0v3.37Zm.96-5.86c-9.04 1.64-17.52-5.25-17.52-14.61C2.34 9 8.99 2.34 17.18 2.34c8.18 0 14.84 6.66 14.84 14.84 0 7.17-5.1 13.32-12.16 14.61Z" fill="#24AB70"/></symbol><symbol fill="none" viewBox="0 0 24 24" id="search" xmlns="http://www.w3.org/2000/svg"><defs><clipPath id="na"><rect rx="0" width="23" height="23" transform="translate(.5 .5)" fill="#fff" fill-opacity="0"/></clipPath></defs><rect rx="0" width="23" height="23" transform="translate(.5 .5)" fill="none"/><g clip-path="url(#na)"><path d="m20.71 19.29-3.4-3.39A7.996 7.996 0 0 0 19 11a8.022 8.022 0 0 0-4.94-7.4 8.06 8.06 0 0 0-4.63-.45 7.996 7.996 0 0 0-4.09 2.19 7.996 7.996 0 0 0-2.19 4.09 8.06 8.06 0 0 0 .45 4.63A8.022 8.022 0 0 0 11 19c1.77 0 3.5-.6 4.89-1.69l3.4 3.4c.09.09.2.16.32.21.12.05.25.08.39.08.13 0 .26-.03.38-.08s.23-.12.33-.21c.09-.1.16-.21.21-.33.05-.12.08-.25.08-.38 0-.14-.03-.27-.08-.39a.988.988 0 0 0-.21-.32ZM5 11a5.994 5.994 0 0 1 3.7-5.55c1.1-.45 2.3-.57 3.47-.34a5.992 5.992 0 0 1 4.71 4.71c.23 1.17.11 2.37-.34 3.47a5.994 5.994 0 0 1-2.21 2.69C13.34 16.64 12.18 17 11 17c-1.6 0-3.12-.64-4.25-1.76A6.02 6.02 0 0 1 5 11Z" fill="#FFF"/></g></symbol><symbol fill="none" viewBox="0 0 40 40" id="swimmer" xmlns="http://www.w3.org/2000/svg"><defs><clipPath id="oa"><rect rx="0" width="39" height="39" transform="translate(.5 .5)" fill="#fff" fill-opacity="0"/></clipPath></defs><rect rx="0" width="39" height="39" transform="translate(.5 .5)" fill="none"/><g clip-path="url(#oa)" fill="#24AB70"><path d="M1.49 28.58c15.2-4.33 20.76 4.41 37.63 0 .63-.16 1-.8.84-1.43-.17-.62-.81-1-1.43-.84-3.31.87-6.19 1.19-8.79 1.19l-3.39-5.47c2 2.49 5.74 2.64 7.92.31a5.201 5.201 0 0 0 1.43-3.76c-.15-4.7-5.91-6.81-9.08-3.44a5.254 5.254 0 0 0-.95 5.8l-4.65-7.49 6.9-1.99a3.463 3.463 0 0 0 2.07-5.02A3.447 3.447 0 0 0 26 4.8L15.56 7.81c-2.71.78-3.92 3.93-2.44 6.33l3.16 5.08c-2.28 1.42-9.49 5.89-9.57 5.95-1.81.19-3.75.55-5.86 1.15-.63.18-.99.83-.81 1.45.18.62.83.98 1.45.81Zm26.84-11.83a2.899 2.899 0 0 1 4.11-.13 2.92 2.92 0 0 1 .13 4.12 2.92 2.92 0 0 1-4.12.12 2.898 2.898 0 0 1-.12-4.11Zm-9.44 2.23-3.78-6.08a1.913 1.913 0 0 1 1.1-2.84l10.44-3.01c.51-.15 1.04.07 1.29.53.36.63.03 1.43-.67 1.63l-8.38 2.42c-.75.21-1.08 1.08-.67 1.74l8.69 14.01c-5.47-.45-9.91-2.1-15.53-2.35l7.13-4.43c.55-.34.72-1.07.38-1.62ZM38.53 31.78C22.38 36 16.72 27.28.85 31.79a1.17 1.17 0 1 0 .64 2.25c15.2-4.32 20.76 4.42 37.63.01.63-.16 1-.8.84-1.43-.17-.62-.81-1-1.43-.84Z"/></g></symbol><symbol fill="none" viewBox="0 0 15.002 20.002" id="triangle-right" xmlns="http://www.w3.org/2000/svg"><path d="M3.26 20a3.74 3.74 0 0 1-1.51-.34A2.884 2.884 0 0 1 0 17.01V2.98c0-.56.17-1.11.48-1.58C.79.93 1.23.56 1.75.33 2.34.05 3-.06 3.65.02 4.3.1 4.92.35 5.43.76l8.5 7.02c.33.27.6.6.79.99.18.38.28.8.28 1.23 0 .42-.1.84-.28 1.23a2.9 2.9 0 0 1-.79.98l-8.5 7.02c-.61.5-1.38.77-2.17.77Z" fill="#24AB70"/></symbol><symbol fill="none" viewBox="0 0 40 40" id="wifi" xmlns="http://www.w3.org/2000/svg"><defs><clipPath id="qa"><rect rx="0" width="39" height="39" transform="translate(.5 .5)" fill="#fff" fill-opacity="0"/></clipPath></defs><rect rx="0" width="39" height="39" transform="translate(.5 .5)" fill="none"/><g clip-path="url(#qa)" fill="#24AB70"><path d="M22.5 33.86a2.58 2.58 0 0 1-2.58 2.58c-1.43 0-2.58-1.15-2.58-2.58a2.58 2.58 0 1 1 5.16 0Z" fill-rule="evenodd"/><path d="M39.58 12.09c-5.14-5.51-12.09-8.54-19.59-8.54-7.49 0-14.44 3.03-19.58 8.54-.58.64-.55 1.62.08 2.21.63.59 1.62.56 2.21-.08C7.24 9.36 13.38 6.67 20 6.67c6.61 0 12.75 2.69 17.29 7.55.31.33.72.5 1.14.5.38 0 .77-.14 1.07-.42.63-.59.66-1.57.08-2.21Z"/><path d="M33.84 18.55c-3.8-3.83-8.71-5.93-13.84-5.93-5.14 0-10.05 2.1-13.85 5.93-.61.61-.6 1.6.01 2.21.61.6 1.6.6 2.21-.01 3.2-3.23 7.33-5.01 11.63-5.01 4.29 0 8.42 1.78 11.62 5.01.31.31.71.46 1.11.46.4 0 .8-.15 1.1-.45.61-.61.62-1.6.01-2.21ZM27.58 25.02c-2.03-2.02-4.94-3.27-7.6-3.27h-.11c-2.66 0-5.58 1.25-7.61 3.27a1.56 1.56 0 0 0 1.1 2.67c.4 0 .8-.15 1.1-.45 1.45-1.44 3.57-2.36 5.41-2.36h.11c1.84 0 3.96.92 5.41 2.36.61.61 1.6.6 2.21-.01.6-.62.6-1.6-.02-2.21Z"/></g></symbol><symbol fill="none" viewBox="0 0 40 40" id="workspace" xmlns="http://www.w3.org/2000/svg"><defs><clipPath id="ra"><rect rx="0" width="39" height="39" transform="translate(.5 .5)" fill="#fff" fill-opacity="0"/></clipPath></defs><rect rx="0" width="39" height="39" transform="translate(.5 .5)" fill="none"/><g clip-path="url(#ra)"><path d="M37.52 4.88H12.23a2.48 2.48 0 0 0-2.48 2.48v2.2l-2.4-2.39-4.06 4.06 1.84 1.84L0 21.14l5.21 8.16H3.24c-1.53 0-2.77 1.25-2.77 2.78v3.03H14.3v-3.03c0-1.53-1.25-2.78-2.78-2.78H8.03l-5.22-8.16 3.45-5.41a5.99 5.99 0 0 0 1.75 4.69l.98.98.76-.75v5.28a2.48 2.48 0 0 0 2.48 2.48h7.09l-.42 4.33h-1.96v2.37H32.81v-2.37h-1.96l-.42-4.33h7.09c1.36 0 2.48-1.11 2.48-2.48V7.36c0-1.37-1.12-2.48-2.48-2.48Zm-26 26.8c.22 0 .4.18.4.4v.66H2.84v-.66c0-.22.18-.4.4-.4h8.28ZM8.28 11.63c-.03.02-.05.04-.07.06-.07.06-.13.12-.2.19-.01 0-.01 0-.01.01-.06.06-.13.13-.19.2l-.06.06c-.03.03-.05.06-.08.1l-1.02-1.02.7-.7 1.02 1.01-.09.09Zm.81 6.32a3.692 3.692 0 0 1-.12-3.39l.02-.02c.01-.04.03-.07.05-.11.01-.01.01-.02.02-.03.02-.03.04-.07.06-.1 0-.01.01-.03.02-.04.02-.03.03-.06.06-.09 0-.02.01-.03.02-.04l.06-.09c.01-.01.02-.03.03-.04.02-.03.04-.06.06-.08.02-.02.03-.04.05-.06.01-.02.03-.04.05-.07.02-.02.04-.04.06-.07.02-.01.03-.03.04-.04.04-.04.08-.08.11-.12.05-.04.09-.08.13-.12.02-.01.03-.02.04-.04a.7.7 0 0 0 .1-.08c.01-.01.03-.02.04-.03.03-.03.07-.05.1-.08.01-.01.03-.02.04-.03.04-.02.07-.05.11-.07l.03-.03c.04-.02.09-.05.13-.07l.02-.02c.31-.18.63-.31.97-.39 0 0 .01-.01.02-.01l.15-.03h.02l.16-.03h.01c.06-.01.11-.02.17-.02h.01c.05-.01.11-.01.16-.02h.19c.15 0 .31.01.46.03h.01l.19.03c.02.01.04.01.06.01.05.01.1.02.15.04.03 0 .05.01.07.01l.18.06.09.03c.04.01.08.03.12.04.03.01.06.03.1.04.03.01.06.03.09.04.03.02.07.03.1.05.03.02.06.03.1.05.02.01.05.03.08.04l-2.5 2.5-2.49 2.49Zm12.19 14.79.42-4.33h6.34l.42 4.33h-7.18Zm16.34-6.81a.1.1 0 0 1-.1.1H12.23c-.06 0-.11-.04-.11-.1v-2.21h25.5v2.21Zm0-4.59h-25.5v-3.07l5.41-5.4-.99-.99c-.6-.6-1.29-1.04-2.04-1.34 0 0-.01 0-.02-.01-.08-.03-.16-.06-.25-.09a.188.188 0 0 0-.08-.02c-.06-.03-.13-.05-.2-.07l-.12-.03c-.05-.01-.1-.03-.15-.04-.06-.01-.12-.03-.18-.04-.03 0-.07-.01-.1-.02l-.22-.03c-.02-.01-.04-.01-.06-.01-.08-.02-.16-.03-.25-.03-.01-.01-.02-.01-.03-.01-.09-.01-.18-.01-.27-.02h-.01c-.15 0-.29-.01-.44 0V7.36c0-.06.05-.1.11-.1h25.29c.05 0 .1.04.1.1v13.98Z" fill="#24AB70"/></g></symbol></svg>