<?xml version="1.0" encoding="utf-8"?><svg xmlns="http://www.w3.org/2000/svg" xmlns:xlink="http://www.w3.org/1999/xlink"><symbol fill="none" viewBox="0 0 40 40" id="shield" xmlns="http://www.w3.org/2000/svg"><path fill="none" d="M0 0h40v40H0z"/><path d="M35.42 7.67c-5.38-1.18-8.56-2.84-10.88-4.05C22.74 2.68 21.44 2 20 2c-1.45 0-2.75.68-4.55 1.62-2.32 1.21-5.5 2.87-10.88 4.05L4 7.79v.58c0 22.02 15.53 29.41 15.69 29.48l.32.15.31-.16C20.48 37.75 36 29.66 36 8.37v-.58l-.58-.12ZM22.9 24.76h-5.81l1.31-5.89a2.88 2.88 0 0 1-1.31-2.42c0-1.6 1.3-2.89 2.91-2.89 1.6 0 2.9 1.29 2.9 2.89 0 1.02-.52 1.9-1.31 2.42l1.31 5.89Z" fill="none"/><path d="M24.54 3.62C22.74 2.68 21.44 2 20 2c-1.45 0-2.75.68-4.55 1.62-2.32 1.21-5.5 2.87-10.88 4.05L4 7.79v.58c0 22.02 15.53 29.41 15.69 29.48l.32.15.31-.16C20.48 37.75 36 29.66 36 8.37v-.58l-.58-.12c-5.38-1.18-8.56-2.84-10.88-4.05Zm-7.45 21.14 1.31-5.89a2.88 2.88 0 0 1-1.31-2.42c0-1.6 1.3-2.89 2.91-2.89 1.6 0 2.9 1.29 2.9 2.89 0 1.02-.52 1.9-1.31 2.42l1.31 5.89h-5.81Z" stroke="#FFF"/></symbol><symbol fill="none" viewBox="0 0 40 40" id="shield2" xmlns="http://www.w3.org/2000/svg"><path fill="none" d="M0 0h40v40H0z"/><path d="M35.42 7.67c-5.38-1.18-8.56-2.84-10.88-4.05C22.74 2.68 21.44 2 20 2c-1.45 0-2.75.68-4.55 1.62-2.32 1.21-5.5 2.87-10.88 4.05L4 7.79v.58c0 22.02 15.53 29.41 15.69 29.48l.32.15.31-.16C20.48 37.75 36 29.66 36 8.37v-.58l-.58-.12ZM22.9 24.76h-5.81l1.31-5.89a2.88 2.88 0 0 1-1.31-2.42c0-1.6 1.3-2.89 2.91-2.89 1.6 0 2.9 1.29 2.9 2.89 0 1.02-.52 1.9-1.31 2.42l1.31 5.89Z" fill="none"/><path d="M24.54 3.62C22.74 2.68 21.44 2 20 2c-1.45 0-2.75.68-4.55 1.62-2.32 1.21-5.5 2.87-10.88 4.05L4 7.79v.58c0 22.02 15.53 29.41 15.69 29.48l.32.15.31-.16C20.48 37.75 36 29.66 36 8.37v-.58l-.58-.12c-5.38-1.18-8.56-2.84-10.88-4.05Zm-7.45 21.14 1.31-5.89a2.88 2.88 0 0 1-1.31-2.42c0-1.6 1.3-2.89 2.91-2.89 1.6 0 2.9 1.29 2.9 2.89 0 1.02-.52 1.9-1.31 2.42l1.31 5.89h-5.81Z" stroke="#FFF"/></symbol></svg>