<svg width="40.000000" height="40.000000" viewBox="0 0 40 40" fill="none" xmlns="http://www.w3.org/2000/svg" xmlns:xlink="http://www.w3.org/1999/xlink">
	<desc>
			Created with Pixso.
	</desc>
	<defs>
		<clipPath id="clip4029_215">
			<rect id="swimmer 1" rx="0.000000" width="39.000000" height="39.000000" transform="translate(0.500000 0.500000)" fill="white" fill-opacity="0"/>
		</clipPath>
	</defs>
	<rect id="swimmer 1" rx="0.000000" width="39.000000" height="39.000000" transform="translate(0.500000 0.500000)" fill="#FFFFFF" fill-opacity="0"/>
	<g clip-path="url(#clip4029_215)">
		<path id="Vector" d="M1.49 28.58C16.69 24.25 22.25 32.99 39.12 28.58C39.75 28.42 40.12 27.78 39.96 27.15C39.79 26.53 39.15 26.15 38.53 26.31C35.22 27.18 32.34 27.5 29.74 27.5L26.35 22.03C28.35 24.52 32.09 24.67 34.27 22.34C35.24 21.32 35.74 19.98 35.7 18.58C35.55 13.88 29.79 11.77 26.62 15.14C25.09 16.77 24.81 19.08 25.67 20.94L21.02 13.45L27.92 11.46C30.07 10.84 31.08 8.39 29.99 6.44C29.2 5.02 27.56 4.35 26 4.8L15.56 7.81C12.85 8.59 11.64 11.74 13.12 14.14L16.28 19.22C14 20.64 6.79 25.11 6.71 25.17C4.9 25.36 2.96 25.72 0.85 26.32C0.22 26.5 -0.14 27.15 0.04 27.77C0.22 28.39 0.87 28.75 1.49 28.58ZM28.33 16.75C29.43 15.57 31.27 15.52 32.44 16.62C33.61 17.72 33.67 19.56 32.57 20.74C31.46 21.91 29.62 21.96 28.45 20.86C27.28 19.76 27.22 17.92 28.33 16.75ZM18.89 18.98L15.11 12.9C14.45 11.83 14.99 10.41 16.21 10.06L26.65 7.05C27.16 6.9 27.69 7.12 27.94 7.58C28.3 8.21 27.97 9.01 27.27 9.21L18.89 11.63C18.14 11.84 17.81 12.71 18.22 13.37L26.91 27.38C21.44 26.93 17 25.28 11.38 25.03L18.51 20.6C19.06 20.26 19.23 19.53 18.89 18.98Z" fill="#24AB70" fill-opacity="1.000000" fill-rule="nonzero"/>
		<path id="Vector" d="M38.53 31.78C22.38 36 16.72 27.28 0.85 31.79C0.22 31.97 -0.14 32.62 0.04 33.24C0.22 33.86 0.87 34.22 1.49 34.04C16.69 29.72 22.25 38.46 39.12 34.05C39.75 33.89 40.12 33.25 39.96 32.62C39.79 32 39.15 31.62 38.53 31.78Z" fill="#24AB70" fill-opacity="1.000000" fill-rule="nonzero"/>
	</g>
</svg>
