<svg width="15.001953" height="20.001949" viewBox="0 0 15.002 20.0019" fill="none" xmlns="http://www.w3.org/2000/svg" xmlns:xlink="http://www.w3.org/1999/xlink">
	<desc>
			Created with Pixso.
	</desc>
	<defs/>
	<path id="Vector" d="M3.26 20C2.74 19.99 2.22 19.88 1.75 19.66C1.23 19.44 0.79 19.07 0.48 18.6C0.17 18.13 0 17.58 0 17.01L0 2.98C0 2.42 0.17 1.87 0.48 1.4C0.79 0.93 1.23 0.56 1.75 0.33C2.34 0.05 3 -0.06 3.65 0.02C4.3 0.1 4.92 0.35 5.43 0.76L13.93 7.78C14.26 8.05 14.53 8.38 14.72 8.77C14.9 9.15 15 9.57 15 10C15 10.42 14.9 10.84 14.72 11.23C14.53 11.61 14.26 11.95 13.93 12.21L5.43 19.23C4.82 19.73 4.05 20 3.26 20Z" fill="#24AB70" fill-opacity="1.000000" fill-rule="nonzero"/>
</svg>
