<svg width="40.000000" height="40.000000" viewBox="0 0 40 40" fill="none" xmlns="http://www.w3.org/2000/svg" xmlns:xlink="http://www.w3.org/1999/xlink">
	<desc>
			Created with Pixso.
	</desc>
	<defs>
		<clipPath id="clip4029_183">
			<rect id="wifi (2) 1" rx="0.000000" width="39.000000" height="39.000000" transform="translate(0.500000 0.500000)" fill="white" fill-opacity="0"/>
		</clipPath>
	</defs>
	<rect id="wifi (2) 1" rx="0.000000" width="39.000000" height="39.000000" transform="translate(0.500000 0.500000)" fill="#FFFFFF" fill-opacity="0"/>
	<g clip-path="url(#clip4029_183)">
		<path id="Vector" d="M22.5 33.86C22.5 35.29 21.34 36.44 19.92 36.44C18.49 36.44 17.34 35.29 17.34 33.86C17.34 32.44 18.49 31.28 19.92 31.28C21.34 31.28 22.5 32.44 22.5 33.86Z" fill="#24AB70" fill-opacity="1.000000" fill-rule="evenodd"/>
		<path id="Vector" d="M39.58 12.09C34.44 6.58 27.49 3.55 19.99 3.55C12.5 3.55 5.55 6.58 0.41 12.09C-0.17 12.73 -0.14 13.71 0.49 14.3C1.12 14.89 2.11 14.86 2.7 14.22C7.24 9.36 13.38 6.67 20 6.67C26.61 6.67 32.75 9.36 37.29 14.22C37.6 14.55 38.01 14.72 38.43 14.72C38.81 14.72 39.2 14.58 39.5 14.3C40.13 13.71 40.16 12.73 39.58 12.09Z" fill="#24AB70" fill-opacity="1.000000" fill-rule="nonzero"/>
		<path id="Vector" d="M33.84 18.55C30.04 14.72 25.13 12.62 20 12.62C14.86 12.62 9.95 14.72 6.15 18.55C5.54 19.16 5.55 20.15 6.16 20.76C6.77 21.36 7.76 21.36 8.37 20.75C11.57 17.52 15.7 15.74 20 15.74C24.29 15.74 28.42 17.52 31.62 20.75C31.93 21.06 32.33 21.21 32.73 21.21C33.13 21.21 33.53 21.06 33.83 20.76C34.44 20.15 34.45 19.16 33.84 18.55Z" fill="#24AB70" fill-opacity="1.000000" fill-rule="nonzero"/>
		<path id="Vector" d="M27.58 25.02C25.55 23 22.64 21.75 19.98 21.75C19.98 21.75 19.98 21.75 19.98 21.75L19.87 21.75C19.87 21.75 19.87 21.75 19.87 21.75C17.21 21.75 14.29 23 12.26 25.02C11.65 25.63 11.64 26.61 12.25 27.23C12.56 27.54 12.96 27.69 13.36 27.69C13.76 27.69 14.16 27.54 14.46 27.24C15.91 25.8 18.03 24.88 19.87 24.88C19.87 24.88 19.87 24.88 19.87 24.88L19.98 24.88C19.98 24.88 19.98 24.88 19.98 24.88C21.82 24.88 23.94 25.8 25.39 27.24C26 27.85 26.99 27.84 27.6 27.23C28.2 26.61 28.2 25.63 27.58 25.02Z" fill="#24AB70" fill-opacity="1.000000" fill-rule="nonzero"/>
	</g>
</svg>
