<svg width="40.000000" height="40.000000" viewBox="0 0 40 40" fill="none" xmlns="http://www.w3.org/2000/svg" xmlns:xlink="http://www.w3.org/1999/xlink">
	<desc>
			Created with Pixso.
	</desc>
	<defs>
		<clipPath id="clip4029_154">
			<rect id="workspace 1" rx="0.000000" width="39.000000" height="39.000000" transform="translate(0.500000 0.500000)" fill="white" fill-opacity="0"/>
		</clipPath>
	</defs>
	<rect id="workspace 1" rx="0.000000" width="39.000000" height="39.000000" transform="translate(0.500000 0.500000)" fill="#FFFFFF" fill-opacity="0"/>
	<g clip-path="url(#clip4029_154)">
		<path id="Vector" d="M37.52 4.88L12.23 4.88C10.86 4.88 9.75 5.99 9.75 7.36L9.75 9.56L7.35 7.17L3.29 11.23L5.13 13.07L0 21.14L5.21 29.3L3.24 29.3C1.71 29.3 0.47 30.55 0.47 32.08L0.47 35.11L14.3 35.11L14.3 32.08C14.3 30.55 13.05 29.3 11.52 29.3L8.03 29.3L2.81 21.14L6.26 15.73C6.14 17.41 6.72 19.14 8.01 20.42L8.99 21.4L9.75 20.65L9.75 25.93C9.75 27.3 10.86 28.41 12.23 28.41L19.32 28.41L18.9 32.74L16.94 32.74L16.94 35.11L18.67 35.11L31.08 35.11L32.81 35.11L32.81 32.74L30.85 32.74L30.43 28.41L37.52 28.41C38.88 28.41 40 27.3 40 25.93L40 7.36C40 5.99 38.88 4.88 37.52 4.88ZM11.52 31.68C11.74 31.68 11.92 31.86 11.92 32.08L11.92 32.74L2.84 32.74L2.84 32.08C2.84 31.86 3.02 31.68 3.24 31.68L11.52 31.68ZM8.28 11.63C8.25 11.65 8.23 11.67 8.21 11.69C8.14 11.75 8.08 11.81 8.01 11.88C8.01 11.88 8.01 11.88 8.01 11.88C8 11.88 8 11.88 8 11.89C7.94 11.95 7.87 12.02 7.81 12.09C7.79 12.11 7.77 12.13 7.75 12.15C7.72 12.18 7.7 12.21 7.67 12.25L6.65 11.23L7.35 10.53L8.37 11.54C8.34 11.57 8.31 11.6 8.28 11.63ZM9.09 17.95C8.5 16.91 8.46 15.63 8.97 14.56C8.98 14.55 8.98 14.55 8.99 14.54C9 14.5 9.02 14.47 9.04 14.43C9.05 14.42 9.05 14.41 9.06 14.4C9.08 14.37 9.1 14.33 9.12 14.3C9.12 14.29 9.13 14.27 9.14 14.26C9.16 14.23 9.17 14.2 9.2 14.17C9.2 14.15 9.21 14.14 9.22 14.13C9.24 14.1 9.26 14.07 9.28 14.04C9.29 14.03 9.3 14.01 9.31 14C9.33 13.97 9.35 13.94 9.37 13.92C9.39 13.9 9.4 13.88 9.42 13.86C9.43 13.84 9.45 13.82 9.47 13.79C9.49 13.77 9.51 13.75 9.53 13.72C9.55 13.71 9.56 13.69 9.57 13.68C9.61 13.64 9.65 13.6 9.68 13.56C9.73 13.52 9.77 13.48 9.81 13.44C9.83 13.43 9.84 13.42 9.85 13.4C9.88 13.38 9.92 13.35 9.95 13.32C9.96 13.31 9.98 13.3 9.99 13.29C10.02 13.26 10.06 13.24 10.09 13.21C10.1 13.2 10.12 13.19 10.13 13.18C10.17 13.16 10.2 13.13 10.24 13.11C10.25 13.1 10.26 13.09 10.27 13.08C10.31 13.06 10.36 13.03 10.4 13.01C10.41 13 10.41 13 10.42 12.99C10.73 12.81 11.05 12.68 11.39 12.6C11.39 12.6 11.4 12.59 11.41 12.59C11.46 12.58 11.51 12.57 11.56 12.56C11.57 12.56 11.57 12.56 11.58 12.56C11.63 12.55 11.69 12.54 11.74 12.53C11.74 12.53 11.75 12.53 11.75 12.53C11.81 12.52 11.86 12.51 11.92 12.51C11.92 12.51 11.92 12.51 11.93 12.51C11.98 12.5 12.04 12.5 12.09 12.49C12.1 12.49 12.1 12.49 12.1 12.49C12.16 12.49 12.21 12.49 12.26 12.49C12.27 12.49 12.27 12.49 12.28 12.49C12.43 12.49 12.59 12.5 12.74 12.52C12.74 12.52 12.74 12.52 12.75 12.52C12.81 12.53 12.88 12.54 12.94 12.55C12.96 12.56 12.98 12.56 13 12.56C13.05 12.57 13.1 12.58 13.15 12.6C13.18 12.6 13.2 12.61 13.22 12.61C13.28 12.63 13.34 12.65 13.4 12.67C13.43 12.68 13.46 12.69 13.49 12.7C13.53 12.71 13.57 12.73 13.61 12.74C13.64 12.75 13.67 12.77 13.71 12.78C13.74 12.79 13.77 12.81 13.8 12.82C13.83 12.84 13.87 12.85 13.9 12.87C13.93 12.89 13.96 12.9 14 12.92C14.02 12.93 14.05 12.95 14.08 12.96L11.58 15.46L9.09 17.95ZM21.28 32.74L21.7 28.41L28.04 28.41L28.46 32.74L21.28 32.74ZM37.62 25.93C37.62 25.99 37.57 26.03 37.52 26.03L30.2 26.03L19.55 26.03L12.23 26.03C12.17 26.03 12.12 25.99 12.12 25.93L12.12 23.72L37.62 23.72L37.62 25.93L37.62 25.93ZM37.62 21.34L12.12 21.34L12.12 18.27L17.53 12.87L16.54 11.88C15.94 11.28 15.25 10.84 14.5 10.54C14.5 10.54 14.49 10.54 14.48 10.53C14.4 10.5 14.32 10.47 14.23 10.44C14.21 10.43 14.18 10.42 14.15 10.42C14.09 10.39 14.02 10.37 13.95 10.35C13.91 10.34 13.87 10.33 13.83 10.32C13.78 10.31 13.73 10.29 13.68 10.28C13.62 10.27 13.56 10.25 13.5 10.24C13.47 10.24 13.43 10.23 13.4 10.22C13.33 10.21 13.26 10.2 13.18 10.19C13.16 10.18 13.14 10.18 13.12 10.18C13.04 10.16 12.96 10.15 12.87 10.15C12.86 10.14 12.85 10.14 12.84 10.14C12.75 10.13 12.66 10.13 12.57 10.12C12.57 10.12 12.56 10.12 12.56 10.12C12.41 10.12 12.27 10.11 12.12 10.12L12.12 7.36C12.12 7.3 12.17 7.26 12.23 7.26L37.52 7.26C37.57 7.26 37.62 7.3 37.62 7.36L37.62 21.34L37.62 21.34Z" fill="#24AB70" fill-opacity="1.000000" fill-rule="nonzero"/>
	</g>
</svg>
